HIERARCHY
ROOT Hips
{
    OFFSET 0.000000 0.000000 0.000000
    CHANNELS 6 Xposition Yposition Zposition Zrotation Xrotation Yrotation
    JOINT Spine
    {
        OFFSET -0.000000 14.517291 0.000000
        CHANNELS 3 Zrotation Xrotation Yrotation
        JOINT Spine1
        {
            OFFSET -0.000000 37.558300 0.000000
            CHANNELS 3 Zrotation Xrotation Yrotation
            JOINT Neck
            {
                OFFSET -0.000000 37.404057 3.400369
                CHANNELS 3 Zrotation Xrotation Yrotation
                JOINT Head
                {
                    OFFSET -0.000000 24.785618 -3.540803
                    CHANNELS 3 Zrotation Xrotation Yrotation
                    End Site
                    {
                        OFFSET -0.000000 35.408028 0.000000
                    }
                }
            }
            JOINT LeftShoulder
            {
                OFFSET 6.992933 33.973492 -0.192664
                CHANNELS 3 Zrotation Xrotation Yrotation
                JOINT LeftArm
                {
                    OFFSET 21.527611 0.000000 0.000000
                    CHANNELS 3 Zrotation Xrotation Yrotation
                    JOINT LeftForeArm
                    {
                        OFFSET 56.353916 0.000000 0.000000
                        CHANNELS 3 Zrotation Xrotation Yrotation
                        JOINT LeftHand
                        {
                            OFFSET 47.774071 0.000000 0.000000
                            CHANNELS 3 Zrotation Xrotation Yrotation
                            End Site
                            {
                                OFFSET 26.556021 0.000000 0.000000
                            }
                        }
                    }
                }
            }
            JOINT RightShoulder
            {
                OFFSET -7.065357 33.973492 -0.192664
                CHANNELS 3 Zrotation Xrotation Yrotation
                JOINT RightArm
                {
                    OFFSET -21.527611 0.000000 0.000000
                    CHANNELS 3 Zrotation Xrotation Yrotation
                    JOINT RightForeArm
                    {
                        OFFSET -56.353916 0.000000 0.000000
                        CHANNELS 3 Zrotation Xrotation Yrotation
                        JOINT RightHand
                        {
                            OFFSET -47.774071 0.000000 0.000000
                            CHANNELS 3 Zrotation Xrotation Yrotation
                            End Site
                            {
                                OFFSET -26.556021 0.000000 0.000000
                            }
                        }
                    }
                }
            }
        }
    }
    JOINT LeftUpLeg
    {
        OFFSET 17.704014 0.000000 0.000000
        CHANNELS 3 Zrotation Xrotation Yrotation
        JOINT LeftLeg
        {
            OFFSET -0.000000 -81.181816 0.000000
            CHANNELS 3 Zrotation Xrotation Yrotation
            JOINT LeftFoot
            {
                OFFSET -0.000000 -62.821102 0.000000
                CHANNELS 3 Zrotation Xrotation Yrotation
                JOINT LeftToeBase
                {
                    OFFSET -0.000000 -11.507608 26.556021
                    CHANNELS 3 Zrotation Xrotation Yrotation
                    End Site
                    {
                        OFFSET -0.000000 0.000000 7.081605
                    }
                }
            }
        }
    }
    JOINT RightUpLeg
    {
        OFFSET -17.704014 0.000000 0.000000
        CHANNELS 3 Zrotation Xrotation Yrotation
        JOINT RightLeg
        {
            OFFSET -0.000000 -81.181816 0.000000
            CHANNELS 3 Zrotation Xrotation Yrotation
            JOINT RightFoot
            {
                OFFSET -0.000000 -62.821102 0.000000
                CHANNELS 3 Zrotation Xrotation Yrotation
                JOINT RightToeBase
                {
                    OFFSET -0.000000 -11.507608 26.556021
                    CHANNELS 3 Zrotation Xrotation Yrotation
                    End Site
                    {
                        OFFSET -0.000000 0.000000 7.081605
                    }
                }
            }
        }
    }
}
MOTION
Frames:    6
Frame Time:    0.008333
16.702444    155.721954    -104.138924    2.578439    -8.427568    43.836853    -4.175515    1.497653    -4.949362    -1.940365    3.424374    -1.609619    -2.047565    -0.563089    -16.504782    18.269876    7.968863    -15.609132    11.703634    -3.224619    -26.605038    -31.703138    -8.952602    -94.804146    41.280708    -68.078056    -69.516769    -30.131693    -46.003399    -40.637814    -2.772712    4.523708    -1.227373    27.914589    -11.806341    50.172512    -26.791515    -13.746003    57.541527    -11.661202    -2.928515    38.788963    17.913401    0.518384    0.258720    -13.673624    34.236538    -18.404905    5.434819    -26.348120    41.735657    0.000000    0.000000    0.000000    -20.064615    -13.132601    -15.627077    14.427419    34.032906    -15.359796    11.355844    2.601658    -17.922903    0.000000    0.000000    0.000000    
16.709856    155.722458    -104.140007    2.590268    -8.423450    43.867805    -4.167516    1.493615    -4.973140    -1.949690    3.428609    -1.617092    -2.072327    -0.551224    -16.507256    18.296209    7.981558    -15.608344    11.703942    -3.229816    -26.615978    -31.731461    -8.940733    -94.790321    41.325733    -68.062744    -69.471649    -30.190458    -45.941776    -40.679382    -2.775942    4.530011    -1.230301    27.937723    -11.817613    50.178234    -26.786392    -13.743996    57.543774    -11.640743    -2.925887    38.828274    17.901266    0.512126    0.261237    -13.664279    34.240692    -18.405361    5.444917    -26.334698    41.718693    0.000000    0.000000    0.000000    -20.078564    -13.121714    -15.610229    14.430760    34.041737    -15.369685    11.385986    2.583648    -17.937052    0.000000    0.000000    0.000000    
16.711109    155.725403    -104.140892    2.593143    -8.422316    43.897778    -4.167820    1.492776    -4.992248    -1.930975    3.426954    -1.624027    -2.066578    -0.546868    -16.508989    18.256130    7.986875    -15.614795    11.705629    -3.231574    -26.634346    -31.758450    -8.941339    -94.766953    41.395081    -68.049446    -69.415474    -30.170387    -45.908047    -40.665619    -2.780373    4.535296    -1.239999    27.951136    -11.822507    50.187809    -26.796038    -13.740101    57.531425    -11.623396    -2.917115    38.855110    17.901108    0.503547    0.253600    -13.656263    34.235836    -18.416431    5.415987    -26.348234    41.706501    0.000000    0.000000    0.000000    -20.078493    -13.113233    -15.611422    14.423313    34.042618    -15.354860    11.394004    2.570018    -17.970577    0.000000    0.000000    0.000000    
16.711567    155.728653    -104.142448    2.596442    -8.421090    43.920963    -4.161968    1.493369    -5.011195    -1.921687    3.426594    -1.630623    -2.086272    -0.548095    -16.511997    18.257582    8.003963    -15.617551    11.718998    -3.253133    -26.638748    -31.749790    -8.920096    -94.712051    41.619148    -68.062325    -69.218300    -30.145699    -45.887043    -40.674210    -2.788914    4.536360    -1.243368    27.943298    -11.804296    50.184399    -26.819508    -13.760574    57.522343    -11.634854    -2.929117    38.837616    17.901213    0.496713    0.239320    -13.660732    34.234383    -18.426527    5.418519    -26.333626    41.709011    0.000000    0.000000    0.000000    -20.076990    -13.105560    -15.608619    14.415904    34.040997    -15.354622    11.409081    2.569742    -17.994429    0.000000    0.000000    0.000000    
16.717239    155.733582    -104.147026    2.606483    -8.420617    43.941135    -4.155102    1.499474    -5.029471    -1.913038    3.418809    -1.637150    -2.107696    -0.547549    -16.504387    18.248205    8.030674    -15.611215    11.731679    -3.246007    -26.644724    -31.742241    -8.927543    -94.655167    41.859467    -68.066185    -68.996658    -30.177616    -45.824211    -40.732563    -2.801587    4.523601    -1.230796    27.948736    -11.794572    50.166786    -26.810673    -13.765857    57.537102    -11.631709    -2.934657    38.843872    17.892668    0.503255    0.234323    -13.651770    34.218758    -18.437693    5.422097    -26.317183    41.690048    0.000000    0.000000    0.000000    -20.078997    -13.090256    -15.616335    14.395248    34.035233    -15.355572    11.408442    2.567033    -17.987839    0.000000    0.000000    0.000000    
16.719301    155.739609    -104.153336    2.612932    -8.416797    43.954021    -4.150596    1.507701    -5.043468    -1.899277    3.405637    -1.642537    -2.115075    -0.552194    -16.503559    18.208839    8.054071    -15.615601    11.740601    -3.230855    -26.641125    -31.719650    -8.932261    -94.607742    42.164310    -68.081230    -68.704948    -30.201580    -45.773792    -40.804016    -2.806685    4.508814    -1.229775    27.945648    -11.784381    50.160000    -26.805012    -13.755306    57.551537    -11.652552    -2.930439    38.847736    17.882483    0.505447    0.227211    -13.650699    34.208847    -18.446163    5.422461    -26.312647    41.703835    0.000000    0.000000    0.000000    -20.077232    -13.077329    -15.607168    14.388468    34.011013    -15.345269    11.398664    2.563824    -18.025856    0.000000    0.000000    0.000000    
